<svg width="1440" height="85" viewBox="0 0 1440 85" fill="none" xmlns="http://www.w3.org/2000/svg">
<path d="M0 0H1440V85H0V0Z" fill="black"/>
<path d="M1394.48 56.6299H1386.05V60.8599H1398.7V48.1499H1394.48V56.6299Z" fill="#B3B3B3"/>
<path d="M1367.22 48.1499H1363V60.8599H1375.65V56.6299H1367.22V48.1499Z" fill="#B3B3B3"/>
<path d="M1363 37.71H1367.22V29.24H1375.65V25H1363V37.71Z" fill="#B3B3B3"/>
<path d="M1386.05 25V29.24H1394.48V37.71H1398.7V25H1386.05Z" fill="#B3B3B3"/>
<path d="M1227 39H1315V47H1227V39Z" fill="#C4C4C4"/>
<path d="M1160 39H1227V47H1160V39Z" fill="#24809E"/>
<rect x="1220" y="35" width="15" height="15" rx="7.5" fill="white"/>
<path d="M1119.86 28L1105.63 38.42V47.07L1119.86 57.49C1119.83 35.26 1119.86 46.17 1119.86 28Z" fill="#B3B3B3"/>
<path d="M1102 49.9198H1109.47V35.5598H1102V49.9198Z" fill="#B3B3B3"/>
<path d="M1129 57.1399C1128.66 57.1407 1128.32 57.0395 1128.03 56.849C1127.75 56.6586 1127.52 56.3874 1127.39 56.0699C1127.3 55.8572 1127.25 55.6286 1127.25 55.3974C1127.25 55.1661 1127.29 54.9367 1127.38 54.7221C1127.46 54.5076 1127.59 54.3122 1127.75 54.1471C1127.91 53.982 1128.11 53.8504 1128.32 53.7599C1129.73 53.1603 1131.02 52.2907 1132.1 51.1999C1134.33 48.9541 1135.59 45.9167 1135.59 42.7499C1135.58 39.5788 1134.31 36.5408 1132.07 34.2999C1130.99 33.2089 1129.7 32.3364 1128.29 31.7299C1127.86 31.547 1127.53 31.2025 1127.35 30.7716C1127.18 30.3407 1127.18 29.8584 1127.36 29.4299C1127.45 29.216 1127.57 29.0217 1127.74 28.8585C1127.9 28.6953 1128.09 28.5664 1128.31 28.4797C1128.52 28.3929 1128.75 28.35 1128.98 28.3535C1129.21 28.3569 1129.44 28.4067 1129.65 28.4999C1133.34 30.0752 1136.28 33.0222 1137.84 36.7199C1138.65 38.6177 1139.06 40.6583 1139.06 42.7199C1139.06 44.7804 1138.65 46.82 1137.85 48.7199C1137.08 50.5565 1135.95 52.2244 1134.54 53.6299C1133.15 55.0638 1131.49 56.209 1129.65 56.9999C1129.45 57.0907 1129.22 57.1384 1129 57.1399Z" fill="#B3B3B3"/>
<path d="M1125.69 50.0801C1125.31 50.0796 1124.94 49.9476 1124.65 49.7064C1124.35 49.4652 1124.15 49.1297 1124.07 48.7566C1124 48.3835 1124.06 47.9959 1124.23 47.6594C1124.41 47.3229 1124.7 47.0581 1125.05 46.9101C1125.87 46.5635 1126.56 45.9838 1127.05 45.2438C1127.54 44.5037 1127.79 43.6362 1127.79 42.7501C1127.79 42.149 1127.67 41.5535 1127.44 41.0001C1127.2 40.4627 1126.86 39.9769 1126.44 39.5701C1126.03 39.1489 1125.55 38.8095 1125.01 38.5701C1124.66 38.3727 1124.39 38.0515 1124.26 37.6682C1124.13 37.285 1124.14 36.8669 1124.3 36.4944C1124.46 36.122 1124.75 35.8215 1125.12 35.6508C1125.49 35.4801 1125.9 35.4514 1126.29 35.5701C1127.46 36.0719 1128.49 36.8522 1129.3 37.8433C1130.1 38.8344 1130.65 40.0064 1130.9 41.2577C1131.14 42.5089 1131.08 43.8016 1130.72 45.0235C1130.35 46.2455 1129.69 47.3599 1128.8 48.2701C1128.09 48.9834 1127.25 49.5508 1126.33 49.9401C1126.13 50.0293 1125.91 50.0769 1125.69 50.0801Z" fill="#B3B3B3"/>
<path d="M629 39H1061V47H629V39Z" fill="#C4C4C4"/>
<path d="M241 39H629V47H241V39Z" fill="#24809E"/>
<rect x="621" y="35" width="15" height="15" rx="7.5" fill="white"/>
<path d="M195.35 42.75L173 28C173 50.23 173 39.32 173 57.49L195.35 42.75Z" fill="#B3B3B3"/>
<path d="M199.15 28H194.96V57.49H199.15V28Z" fill="#B3B3B3"/>
<path d="M131.35 42.75L109 28C109 50.23 109 39.32 109 57.49L131.35 42.75Z" fill="#B3B3B3"/>
<path d="M44.8 42.75L67.14 57.49C67.14 35.26 67.14 46.17 67.14 28L44.8 42.75Z" fill="#B3B3B3"/>
<path d="M41 57.49H45.19V28H41V57.49Z" fill="#B3B3B3"/>
</svg>
